<svg data-v-fde0c5aa="" xmlns="http://www.w3.org/2000/svg" viewBox="0 0 50 20" class="iconLeft"><!---->
    <g id="b61a8432-146e-410c-9b44-7b3c5f2b2c8f" fill="#4169e1">
        <path d="M4.17 14.11L4.17 14.11Q3.08 14.11 2.25 13.75L2.25 13.75L2.25 13.75Q1.43 13.38 0.98 12.73L0.98 12.73L0.98 12.73Q0.53 12.07 0.53 11.19L0.53 11.19L0.53 10.95L0.53 10.95Q0.53 10.71 0.77 10.71L0.77 10.71L2.24 10.71L2.24 10.71Q2.48 10.71 2.48 10.89L2.48 10.89L2.48 11.09L2.48 11.09Q2.48 11.65 2.99 12.03L2.99 12.03L2.99 12.03Q3.50 12.42 4.33 12.42L4.33 12.42L4.33 12.42Q5.07 12.42 5.42 12.10L5.42 12.10L5.42 12.10Q5.78 11.79 5.78 11.33L5.78 11.33L5.78 11.33Q5.78 10.99 5.56 10.76L5.56 10.76L5.56 10.76Q5.33 10.53 4.96 10.35L4.96 10.35L4.96 10.35Q4.58 10.18 3.74 9.87L3.74 9.87L3.74 9.87Q2.79 9.55 2.14 9.21L2.14 9.21L2.14 9.21Q1.50 8.88 1.05 8.29L1.05 8.29L1.05 8.29Q0.60 7.71 0.60 6.86L0.60 6.86L0.60 6.86Q0.60 6.02 1.04 5.39L1.04 5.39L1.04 5.39Q1.47 4.76 2.25 4.42L2.25 4.42L2.25 4.42Q3.02 4.09 4.02 4.09L4.02 4.09L4.02 4.09Q5.08 4.09 5.92 4.47L5.92 4.47L5.92 4.47Q6.76 4.84 7.23 5.52L7.23 5.52L7.23 5.52Q7.70 6.20 7.70 7.10L7.70 7.10L7.70 7.24L7.70 7.24Q7.70 7.48 7.46 7.48L7.46 7.48L5.99 7.48L5.99 7.48Q5.75 7.48 5.75 7.34L5.75 7.34L5.75 7.20L5.75 7.20Q5.75 6.61 5.27 6.19L5.27 6.19L5.27 6.19Q4.79 5.78 3.95 5.78L3.95 5.78L3.95 5.78Q3.28 5.78 2.91 6.06L2.91 6.06L2.91 6.06Q2.55 6.34 2.55 6.83L2.55 6.83L2.55 6.83Q2.55 7.18 2.76 7.42L2.76 7.42L2.76 7.42Q2.97 7.66 3.40 7.85L3.40 7.85L3.40 7.85Q3.82 8.05 4.72 8.36L4.72 8.36L4.72 8.36Q5.70 8.72 6.27 9.00L6.27 9.00L6.27 9.00Q6.85 9.27 7.30 9.83L7.30 9.83L7.30 9.83Q7.76 10.39 7.76 11.27L7.76 11.27L7.76 11.27Q7.76 12.12 7.32 12.77L7.32 12.77L7.32 12.77Q6.87 13.41 6.07 13.76L6.07 13.76L6.07 13.76Q5.26 14.11 4.17 14.11L4.17 14.11ZM13.22 7.04L13.22 7.04Q13.22 6.80 13.45 6.80L13.45 6.80L14.95 6.80L14.95 6.80Q15.19 6.80 15.19 7.04L15.19 7.04L15.19 13.76L15.19 13.76Q15.19 14 14.95 14L14.95 14L13.45 14L13.45 14Q13.22 14 13.22 13.76L13.22 13.76L13.22 13.38L13.22 13.38Q13.22 13.33 13.18 13.32L13.18 13.32L13.18 13.32Q13.15 13.31 13.12 13.36L13.12 13.36L13.12 13.36Q12.57 14.10 11.40 14.10L11.40 14.10L11.40 14.10Q10.33 14.10 9.65 13.45L9.65 13.45L9.65 13.45Q8.96 12.81 8.96 11.65L8.96 11.65L8.96 7.04L8.96 7.04Q8.96 6.80 9.20 6.80L9.20 6.80L10.68 6.80L10.68 6.80Q10.92 6.80 10.92 7.04L10.92 7.04L10.92 11.16L10.92 11.16Q10.92 11.72 11.22 12.07L11.22 12.07L11.22 12.07Q11.52 12.42 12.05 12.42L12.05 12.42L12.05 12.42Q12.53 12.42 12.84 12.13L12.84 12.13L12.84 12.13Q13.15 11.84 13.22 11.38L13.22 11.38L13.22 7.04ZM20.23 6.71L20.23 6.71Q20.68 6.71 20.97 6.87L20.97 6.87L20.97 6.87Q21.14 6.96 21.10 7.17L21.10 7.17L20.83 8.64L20.83 8.64Q20.82 8.76 20.75 8.79L20.75 8.79L20.75 8.79Q20.69 8.82 20.55 8.79L20.55 8.79L20.55 8.79Q20.33 8.74 20.15 8.74L20.15 8.74L20.15 8.74Q20.05 8.74 19.82 8.76L19.82 8.76L19.82 8.76Q19.32 8.81 18.97 9.13L18.97 9.13L18.97 9.13Q18.62 9.46 18.62 10.01L18.62 10.01L18.62 13.76L18.62 13.76Q18.62 14 18.38 14L18.38 14L16.88 14L16.88 14Q16.65 14 16.65 13.76L16.65 13.76L16.65 7.04L16.65 7.04Q16.65 6.80 16.88 6.80L16.88 6.80L18.38 6.80L18.38 6.80Q18.62 6.80 18.62 7.04L18.62 7.04L18.62 7.48L18.62 7.48Q18.62 7.53 18.65 7.55L18.65 7.55L18.65 7.55Q18.68 7.56 18.72 7.52L18.72 7.52L18.72 7.52Q19.28 6.71 20.23 6.71L20.23 6.71ZM22.25 14L22.25 14Q22.01 14 22.01 13.76L22.01 13.76L22.01 4.44L22.01 4.44Q22.01 4.20 22.25 4.20L22.25 4.20L23.74 4.20L23.74 4.20Q23.98 4.20 23.98 4.44L23.98 4.44L23.98 9.06L23.98 9.06Q23.98 9.11 24.02 9.12L24.02 9.12L24.02 9.12Q24.05 9.13 24.08 9.09L24.08 9.09L25.94 6.94L25.94 6.94Q26.08 6.80 26.24 6.80L26.24 6.80L27.93 6.80L27.93 6.80Q28.03 6.80 28.08 6.84L28.08 6.84L28.08 6.84Q28.14 6.87 28.14 6.94L28.14 6.94L28.14 6.94Q28.14 7.03 28.08 7.10L28.08 7.10L26.36 9.25L26.36 9.25Q26.32 9.30 26.35 9.37L26.35 9.37L28.41 13.72L28.43 13.83L28.43 13.83Q28.43 14 28.22 14L28.22 14L26.64 14L26.64 14Q26.45 14 26.36 13.82L26.36 13.82L25.00 10.61L25.00 10.61Q24.96 10.53 24.89 10.60L24.89 10.60L24.02 11.70L24.02 11.70Q23.98 11.76 23.98 11.80L23.98 11.80L23.98 13.76L23.98 13.76Q23.98 14 23.74 14L23.74 14L22.25 14ZM32.66 14.11L32.66 14.11Q31.47 14.11 30.63 13.50L30.63 13.50L30.63 13.50Q29.79 12.88 29.48 11.82L29.48 11.82L29.48 11.82Q29.29 11.16 29.29 10.39L29.29 10.39L29.29 10.39Q29.29 9.53 29.50 8.90L29.50 8.90L29.50 8.90Q29.82 7.87 30.65 7.28L30.65 7.28L30.65 7.28Q31.49 6.69 32.68 6.69L32.68 6.69L32.68 6.69Q33.82 6.69 34.64 7.28L34.64 7.28L34.64 7.28Q35.46 7.87 35.78 8.89L35.78 8.89L35.78 8.89Q35.99 9.53 35.99 10.36L35.99 10.36L35.99 10.36Q35.99 11.09 35.81 11.77L35.81 11.77L35.81 11.77Q35.49 12.87 34.66 13.49L34.66 13.49L34.66 13.49Q33.82 14.11 32.66 14.11L32.66 14.11ZM32.66 12.42L32.66 12.42Q33.11 12.42 33.43 12.14L33.43 12.14L33.43 12.14Q33.75 11.86 33.89 11.37L33.89 11.37L33.89 11.37Q34.01 10.99 34.01 10.39L34.01 10.39L34.01 10.39Q34.01 9.80 33.89 9.39L33.89 9.39L33.89 9.39Q33.75 8.92 33.43 8.65L33.43 8.65L33.43 8.65Q33.11 8.39 32.63 8.39L32.63 8.39L32.63 8.39Q32.17 8.39 31.85 8.65L31.85 8.65L31.85 8.65Q31.53 8.92 31.39 9.39L31.39 9.39L31.39 9.39Q31.28 9.80 31.28 10.39L31.28 10.39L31.28 10.39Q31.28 10.96 31.39 11.37L31.39 11.37L31.39 11.37Q31.53 11.86 31.86 12.14L31.86 12.14L31.86 12.14Q32.19 12.42 32.66 12.42L32.66 12.42ZM41.30 6.79L41.30 6.79Q41.54 6.79 41.54 7.03L41.54 7.03L41.54 8.22L41.54 8.22Q41.54 8.46 41.30 8.46L41.30 8.46L40.03 8.46L40.03 8.46Q39.94 8.46 39.94 8.54L39.94 8.54L39.94 13.76L39.94 13.76Q39.94 14 39.70 14L39.70 14L38.21 14L38.21 14Q37.97 14 37.97 13.76L37.97 13.76L37.97 8.54L37.97 8.54Q37.97 8.46 37.88 8.46L37.88 8.46L37.14 8.46L37.14 8.46Q36.90 8.46 36.90 8.22L36.90 8.22L36.90 7.03L36.90 7.03Q36.90 6.79 37.14 6.79L37.14 6.79L37.88 6.79L37.88 6.79Q37.97 6.79 37.97 6.71L37.97 6.71L37.97 6.41L37.97 6.41Q37.97 5.54 38.23 5.06L38.23 5.06L38.23 5.06Q38.50 4.58 39.09 4.38L39.09 4.38L39.09 4.38Q39.69 4.17 40.74 4.20L40.74 4.20L41.20 4.20L41.20 4.20Q41.44 4.20 41.44 4.44L41.44 4.44L41.44 5.43L41.44 5.43Q41.44 5.67 41.20 5.67L41.20 5.67L40.81 5.67L40.81 5.67Q40.32 5.68 40.13 5.87L40.13 5.87L40.13 5.87Q39.94 6.06 39.94 6.57L39.94 6.57L39.94 6.71L39.94 6.71Q39.94 6.79 40.03 6.79L40.03 6.79L41.30 6.79ZM46.72 6.79L46.72 6.79Q46.96 6.79 46.96 7.03L46.96 7.03L46.96 8.22L46.96 8.22Q46.96 8.46 46.72 8.46L46.72 8.46L45.44 8.46L45.44 8.46Q45.36 8.46 45.36 8.54L45.36 8.54L45.36 13.76L45.36 13.76Q45.36 14 45.12 14L45.12 14L43.62 14L43.62 14Q43.39 14 43.39 13.76L43.39 13.76L43.39 8.54L43.39 8.54Q43.39 8.46 43.30 8.46L43.30 8.46L42.56 8.46L42.56 8.46Q42.32 8.46 42.32 8.22L42.32 8.22L42.32 7.03L42.32 7.03Q42.32 6.79 42.56 6.79L42.56 6.79L43.30 6.79L43.30 6.79Q43.39 6.79 43.39 6.71L43.39 6.71L43.39 6.41L43.39 6.41Q43.39 5.54 43.65 5.06L43.65 5.06L43.65 5.06Q43.92 4.58 44.51 4.38L44.51 4.38L44.51 4.38Q45.11 4.17 46.16 4.20L46.16 4.20L46.62 4.20L46.62 4.20Q46.86 4.20 46.86 4.44L46.86 4.44L46.86 5.43L46.86 5.43Q46.86 5.67 46.62 5.67L46.62 5.67L46.23 5.67L46.23 5.67Q45.74 5.68 45.55 5.87L45.55 5.87L45.55 5.87Q45.36 6.06 45.36 6.57L45.36 6.57L45.36 6.71L45.36 6.71Q45.36 6.79 45.44 6.79L45.44 6.79L46.72 6.79Z"/>
    </g>
</svg>